<svg id="Layer_1" data-name="Layer 1" xmlns="http://www.w3.org/2000/svg" viewBox="0 0 258.87 69.67"><defs><style>.cls-1{font-size:42px;fill:#231f20;font-family:Agenor-Bold, Agenor;font-weight:700;}.cls-2{letter-spacing:-0.02em;}.cls-3{letter-spacing:0em;}.cls-4,.cls-5{fill:#be1e2d;}.cls-4{font-family:Agenor-Regular, Agenor;font-weight:400;}</style></defs><text class="cls-1" transform="translate(0 50.17)"><tspan class="cls-2">T</tspan><tspan class="cls-3" x="25.83" y="0">OUR</tspan><tspan class="cls-4" x="126.17" y="0">om a</tspan></text><path class="cls-5" d="M640.5,1192.37c-.14-.63-.37-1.25-.53-1.87-.41-1.54-1.1-3.11-.66-4.63.1-.66.34-1.3.47-2-2.2-1-5.23-1-7.73-.75-.48.43,0,.92.13,1.39a14.92,14.92,0,0,1-.21,2.31,3.81,3.81,0,0,1-.61,1.92c-.17.38-.51,1.14-.69,1.52.38,1.48-2.22,1.46-2.81,2.53.09.4.23.79.36,1.19a3.08,3.08,0,0,1,1.35,1.49,33.89,33.89,0,0,0,3.15,1.26c-.11,12.4-1.06,24.76-1.56,37.13,0,1.06,0,2.11,0,3.17-.75,4.93-.09,10-1.48,14.88l2.51.55.82.18H633a2.64,2.64,0,0,0,2.51-2.27h0c0-.24,0-.48.05-.72.09-1.7.13-3.4.1-5.11,0-3.7.64-7.36.61-11.06.63-12.12.73-24.36,2-36.58-.09-.6.88-.24,1.46-.24.76-.74,2.55-.68,2.71-1.73C644,1193.7,642,1193,640.5,1192.37Zm-4.84-4.62c-.54-.52-.54-1.73.79-1.39-.56-.32-1.38-1-.23-1.12.79.37.63,1.37.56,2-1.09.84.41,2-.53,2.94C634.06,1189.92,635.22,1188.46,635.66,1187.75Zm-.9,4c.21-.39,1.16,0,1.69,0l1,.11C636.84,1192.24,635.6,1191.89,634.76,1191.71Z" transform="translate(-428.88 -1183.01)"/></svg>